<?xml version="1.0" standalone="no"?>
<!DOCTYPE svg PUBLIC "-//W3C//DTD SVG 20010904//EN"
 "http://www.w3.org/TR/2001/REC-SVG-20010904/DTD/svg10.dtd">
<svg version="1.0" xmlns="http://www.w3.org/2000/svg"
 width="746.000000pt" height="746.000000pt" viewBox="0 0 746.000000 746.000000"
 preserveAspectRatio="xMidYMid meet">

<g transform="translate(0.000000,746.000000) scale(0.100000,-0.100000)"
fill="#000000" stroke="none">
<path d="M1352 7068 c-9 -9 -12 -126 -12 -465 l0 -453 -452 0 c-249 0 -458 -4
-464 -8 -21 -13 -25 -49 -9 -66 15 -14 67 -16 471 -16 l454 0 -2 -422 -3 -423
-457 -3 c-439 -2 -458 -3 -468 -21 -13 -26 -3 -50 27 -62 14 -5 212 -9 451 -9
235 1 433 1 440 0 9 0 12 -91 12 -420 l0 -420 -454 0 c-400 0 -456 -2 -470
-16 -22 -21 -20 -40 6 -58 20 -14 81 -16 470 -16 l448 0 0 -420 0 -420 -452 0
c-249 0 -458 -4 -464 -8 -21 -13 -25 -49 -9 -66 15 -14 67 -16 471 -16 l454 0
-2 -422 -3 -423 -457 -3 c-439 -2 -458 -3 -468 -21 -13 -26 -3 -50 27 -62 14
-5 212 -9 451 -9 235 1 433 1 440 0 9 0 12 -91 12 -420 l0 -420 -454 0 c-400
0 -456 -2 -470 -16 -22 -21 -20 -40 6 -58 20 -14 81 -16 470 -16 l448 0 2
-456 c3 -423 4 -458 21 -468 12 -8 22 -8 35 0 16 10 17 45 20 468 l2 456 425
0 425 0 0 -448 c0 -487 1 -492 52 -479 15 4 28 16 32 29 3 13 6 220 6 461 l0
437 420 0 420 0 0 -449 c0 -395 2 -451 16 -465 21 -22 51 -20 64 3 6 13 10
177 10 465 l0 446 425 0 425 0 2 -456 c3 -423 4 -458 21 -468 12 -8 22 -8 35
0 16 10 17 45 20 468 l2 456 425 0 425 0 0 -448 c0 -487 1 -492 52 -479 15 4
28 16 32 29 3 13 6 220 6 461 l0 437 420 0 420 0 0 -449 c0 -395 2 -451 16
-465 21 -22 51 -20 64 3 6 13 10 177 10 465 l0 446 446 0 c288 0 452 4 465 10
21 12 25 50 7 68 -9 9 -126 12 -465 12 l-453 0 2 421 3 421 435 -1 c239 0 445
2 458 5 26 8 39 48 22 69 -11 13 -77 15 -466 15 l-454 0 0 425 0 425 453 0
c339 0 456 3 465 12 21 21 14 58 -14 68 -15 6 -203 10 -465 10 l-439 0 0 420
0 420 446 0 c288 0 452 4 465 10 21 12 25 50 7 68 -9 9 -126 12 -465 12 l-453
0 2 421 3 421 435 -1 c239 0 445 2 458 5 26 8 39 48 22 69 -11 13 -77 15 -466
15 l-454 0 0 425 0 425 453 0 c339 0 456 3 465 12 21 21 14 58 -14 68 -15 6
-203 10 -465 10 l-439 0 0 455 c0 439 -1 455 -19 465 -27 14 -37 13 -55 -6
-14 -14 -16 -70 -16 -465 l0 -449 -420 0 -420 0 0 438 c0 240 -3 447 -6 460
-8 26 -48 39 -69 22 -13 -11 -15 -77 -15 -466 l0 -454 -425 0 -425 0 -2 456
c-3 423 -4 458 -20 468 -13 8 -23 8 -35 0 -17 -10 -18 -45 -21 -468 l-2 -456
-425 0 -425 0 0 455 c0 439 -1 455 -19 465 -27 14 -37 13 -55 -6 -14 -14 -16
-70 -16 -465 l0 -449 -420 0 -420 0 0 438 c0 240 -3 447 -6 460 -8 26 -48 39
-69 22 -13 -11 -15 -77 -15 -466 l0 -454 -425 0 -425 0 0 453 c0 468 -1 477
-40 477 -9 0 -21 -5 -28 -12z m918 -1433 l0 -425 -422 2 -423 3 -3 423 -2 422
425 0 425 0 0 -425z m930 0 l0 -425 -420 0 -420 0 0 425 0 425 420 0 420 0 0
-425z m938 3 l-3 -423 -422 -3 -423 -2 0 425 0 425 425 0 425 0 -2 -422z m932
-3 l0 -425 -422 2 -423 3 -3 423 -2 422 425 0 425 0 0 -425z m930 0 l0 -425
-420 0 -420 0 0 425 0 425 420 0 420 0 0 -425z m-3730 -935 l0 -420 -425 0
-425 0 0 418 c0 230 2 421 4 423 2 2 194 3 425 1 l421 -2 0 -420z m1863 420
c4 0 7 -189 7 -420 l0 -420 -425 0 -425 0 0 418 c0 230 2 421 4 423 3 3 755 2
839 -1z m937 -420 l0 -420 -425 0 -425 0 0 418 c0 230 2 421 4 423 2 2 194 3
425 1 l421 -2 0 -420z m-1870 0 l0 -420 -420 0 -420 0 0 420 0 420 420 0 420
0 0 -420z m2800 0 l0 -420 -420 0 -420 0 0 420 0 420 420 0 420 0 0 -420z
m-3730 -930 l0 -420 -425 0 -425 0 0 420 0 420 425 0 425 0 0 -420z m930 0 l0
-420 -420 0 -420 0 0 420 0 420 420 0 420 0 0 -420z m940 0 l0 -420 -425 0
-425 0 0 420 0 420 425 0 425 0 0 -420z m930 0 l0 -420 -425 0 -425 0 0 420 0
420 425 0 425 0 0 -420z m930 0 l0 -420 -420 0 -420 0 0 420 0 420 420 0 420
0 0 -420z m-3730 -935 l0 -425 -422 2 -423 3 -3 423 -2 422 425 0 425 0 0
-425z m930 0 l0 -425 -420 0 -420 0 0 425 0 425 420 0 420 0 0 -425z m938 3
l-3 -423 -422 -3 -423 -2 0 425 0 425 425 0 425 0 -2 -422z m932 -3 l0 -425
-422 2 -423 3 -3 423 -2 422 425 0 425 0 0 -425z m930 0 l0 -425 -420 0 -420
0 0 425 0 425 420 0 420 0 0 -425z m-3730 -935 l0 -420 -425 0 -425 0 0 418
c0 230 2 421 4 423 2 2 194 3 425 1 l421 -2 0 -420z m1863 420 c4 0 7 -189 7
-420 l0 -420 -425 0 -425 0 0 418 c0 230 2 421 4 423 3 3 755 2 839 -1z m937
-420 l0 -420 -425 0 -425 0 0 418 c0 230 2 421 4 423 2 2 194 3 425 1 l421 -2
0 -420z m-1870 0 l0 -420 -420 0 -420 0 0 420 0 420 420 0 420 0 0 -420z
m2800 0 l0 -420 -420 0 -420 0 0 420 0 420 420 0 420 0 0 -420z"/>
</g>
</svg>
